<svg width="118" height="25" viewBox="0 0 118 25" fill="none" xmlns="http://www.w3.org/2000/svg">
<g clip-path="url(#clip0_12_78)">
<path fill-rule="evenodd" clip-rule="evenodd" d="M6.10352e-05 15.6249C6.10352e-05 15.6249 6.10352e-05 2.51557 6.10352e-05 0.312378C6.10352e-05 0.229503 0.0328916 0.150017 0.0913385 0.0914078C0.149785 0.0327984 0.229049 -0.00012207 0.311695 -0.00012207C1.37561 -0.00012207 4.85718 -0.00012207 5.9211 -0.00012207C6.09321 -0.00012207 6.23273 0.139784 6.23273 0.312378V6.35293C6.23273 6.45194 6.27954 6.54511 6.35888 6.60405C6.43824 6.66297 6.54075 6.68071 6.63521 6.65185C7.49419 6.39038 8.40539 6.24988 9.34906 6.24988C14.5089 6.24988 18.6981 10.4507 18.6981 15.6249C18.6981 20.7991 14.5089 24.9999 9.34906 24.9999C4.18921 24.9999 6.10352e-05 20.7991 6.10352e-05 15.6249ZM6.23273 15.6249C6.23273 17.3496 7.62911 18.7499 9.34906 18.7499C11.069 18.7499 12.4654 17.3496 12.4654 15.6249C12.4654 13.9001 11.069 12.4999 9.34906 12.4999C7.62911 12.4999 6.23273 13.9001 6.23273 15.6249Z" fill="#404040"/>
<path fill-rule="evenodd" clip-rule="evenodd" d="M32.3248 24.7971C32.3248 24.7207 32.2884 24.6489 32.2268 24.6039C32.1652 24.5589 32.0859 24.5462 32.0134 24.5696C31.1279 24.8493 30.1856 24.9999 29.2085 24.9999C24.0486 24.9999 19.8595 20.7991 19.8595 15.6249C19.8595 10.4507 24.0486 6.24994 29.2085 6.24994C34.3683 6.24994 38.5575 10.4507 38.5575 15.6249C38.5575 15.6249 38.5575 23.0597 38.5575 24.6874C38.5575 24.7703 38.5246 24.8498 38.4662 24.9084C38.4078 24.967 38.3285 24.9999 38.2458 24.9999H32.5271C32.4154 24.9999 32.3248 24.9091 32.3248 24.7971V24.7971ZM32.3248 15.6249C32.3248 13.9002 30.9284 12.4999 29.2085 12.4999C27.4885 12.4999 26.0921 13.9002 26.0921 15.6249C26.0921 17.3497 27.4885 18.7499 29.2085 18.7499C30.9284 18.7499 32.3248 17.3497 32.3248 15.6249Z" fill="#404040"/>
<path fill-rule="evenodd" clip-rule="evenodd" d="M72.0436 24.7971C72.0436 24.7207 72.0072 24.6489 71.9456 24.6039C71.8841 24.5589 71.8048 24.5462 71.7322 24.5696C70.8467 24.8493 69.9044 24.9999 68.9273 24.9999C63.7674 24.9999 59.5783 20.7991 59.5783 15.6249C59.5783 10.4507 63.7674 6.24994 68.9273 6.24994C74.0871 6.24994 78.2763 10.4507 78.2763 15.6249C78.2763 15.6249 78.2763 23.0597 78.2763 24.6874C78.2763 24.7703 78.2435 24.8498 78.185 24.9084C78.1266 24.967 78.0473 24.9999 77.9647 24.9999H72.2459C72.1342 24.9999 72.0436 24.9091 72.0436 24.7971V24.7971ZM72.0436 15.6249C72.0436 13.9002 70.6472 12.4999 68.9273 12.4999C67.2073 12.4999 65.8109 13.9002 65.8109 15.6249C65.8109 17.3497 67.2073 18.7499 68.9273 18.7499C70.6472 18.7499 72.0436 17.3497 72.0436 15.6249Z" fill="#404040"/>
<path fill-rule="evenodd" clip-rule="evenodd" d="M39.7191 24.6874C39.7191 23.0597 39.7191 15.6249 39.7191 15.6249C39.7191 10.4507 43.9082 6.24994 49.0681 6.24994C54.2279 6.24994 58.4171 10.4507 58.4171 15.6249C58.4171 15.6263 58.4171 23.0597 58.4171 24.6874C58.4171 24.7703 58.3842 24.8498 58.3258 24.9084C58.2673 24.967 58.1881 24.9999 58.1054 24.9999H52.496C52.4134 24.9999 52.3341 24.967 52.2757 24.9084C52.2172 24.8498 52.1844 24.7703 52.1844 24.6874C52.1844 23.0597 52.1844 15.6249 52.1844 15.6249C52.1844 13.9002 50.788 12.4999 49.0681 12.4999C47.3481 12.4999 45.9517 13.9002 45.9517 15.6249C45.9517 15.6249 45.9517 23.0597 45.9517 24.6874C45.9517 24.7703 45.9189 24.8498 45.8604 24.9084C45.802 24.967 45.7227 24.9999 45.6401 24.9999H40.0307C39.948 24.9999 39.8688 24.967 39.8103 24.9084C39.7519 24.8498 39.7191 24.7703 39.7191 24.6874Z" fill="#404040"/>
<path fill-rule="evenodd" clip-rule="evenodd" d="M111.763 24.7971C111.763 24.7207 111.726 24.6489 111.665 24.6039C111.603 24.5589 111.524 24.5462 111.451 24.5696C110.566 24.8493 109.623 24.9999 108.646 24.9999C103.486 24.9999 99.2973 20.7991 99.2973 15.6249C99.2973 10.4507 103.486 6.24994 108.646 6.24994C113.806 6.24994 117.995 10.4507 117.995 15.6249C117.995 15.6249 117.995 23.0597 117.995 24.6874C117.995 24.7703 117.963 24.8498 117.904 24.9084C117.846 24.967 117.766 24.9999 117.684 24.9999C116.58 24.9999 112.873 24.9999 111.965 24.9999C111.853 24.9999 111.763 24.9091 111.763 24.7971V24.7971ZM111.763 15.6249C111.763 13.9002 110.366 12.4999 108.646 12.4999C106.926 12.4999 105.53 13.9002 105.53 15.6249C105.53 17.3497 106.926 18.7499 108.646 18.7499C110.366 18.7499 111.763 17.3497 111.763 15.6249Z" fill="#404040"/>
<path fill-rule="evenodd" clip-rule="evenodd" d="M79.4378 24.6874C79.4378 23.0597 79.4378 15.6249 79.4378 15.6249C79.4378 10.4507 83.627 6.24994 88.7868 6.24994C93.9467 6.24994 98.1358 10.4507 98.1358 15.6249V24.6874C98.1358 24.7703 98.103 24.8498 98.0445 24.9084C97.9861 24.967 97.9068 24.9999 97.8242 24.9999H92.2148C92.1321 24.9999 92.0529 24.967 91.9944 24.9084C91.936 24.8498 91.9032 24.7703 91.9032 24.6874C91.9032 23.0597 91.9032 15.6249 91.9032 15.6249C91.9032 13.9002 90.5068 12.4999 88.7868 12.4999C87.0669 12.4999 85.6705 13.9002 85.6705 15.6249C85.6705 15.6249 85.6705 23.0597 85.6705 24.6874C85.6705 24.7703 85.6377 24.8498 85.5792 24.9084C85.5208 24.967 85.4415 24.9999 85.3588 24.9999H79.7494C79.6668 24.9999 79.5875 24.967 79.5291 24.9084C79.4706 24.8498 79.4378 24.7703 79.4378 24.6874Z" fill="#404040"/>
</g>
<defs>
<clipPath id="clip0_12_78">
<rect width="118" height="25" fill="white"/>
</clipPath>
</defs>
</svg>
