<svg width="38" height="50" viewBox="0 0 38 50" fill="none" xmlns="http://www.w3.org/2000/svg">
<path fill-rule="evenodd" clip-rule="evenodd" d="M0 31.25C0 31.25 0 5.03138 0 0.625C0 0.45925 0.0667217 0.300278 0.185503 0.18306C0.304285 0.065841 0.465373 0 0.633334 0C2.79553 0 9.87114 0 12.0333 0C12.3831 0 12.6667 0.279813 12.6667 0.625V12.7061C12.6667 12.9041 12.7618 13.0905 12.923 13.2083C13.0843 13.3262 13.2927 13.3617 13.4846 13.3039C15.2303 12.781 17.0822 12.5 19 12.5C29.4864 12.5 38 20.9016 38 31.25C38 41.5984 29.4864 50 19 50C8.51362 50 0 41.5984 0 31.25ZM12.6667 31.25C12.6667 34.6995 15.5045 37.5 19 37.5C22.4955 37.5 25.3333 34.6995 25.3333 31.25C25.3333 27.8005 22.4955 25 19 25C15.5045 25 12.6667 27.8005 12.6667 31.25Z" fill="#404040"/>
</svg>
