<svg width="118" height="25" viewBox="0 0 118 25" fill="none" xmlns="http://www.w3.org/2000/svg">
<g clip-path="url(#clip0_3_11)">
<path fill-rule="evenodd" clip-rule="evenodd" d="M6.10352e-05 15.6249C6.10352e-05 15.6249 6.10352e-05 2.5156 6.10352e-05 0.312408C6.10352e-05 0.229533 0.0328916 0.150048 0.0913385 0.0914383C0.149785 0.0328289 0.229049 -9.15527e-05 0.311695 -9.15527e-05C1.37561 -9.15527e-05 4.85718 -9.15527e-05 5.9211 -9.15527e-05C6.09321 -9.15527e-05 6.23273 0.139815 6.23273 0.312408V6.35296C6.23273 6.45197 6.27954 6.54514 6.35888 6.60408C6.43824 6.663 6.54075 6.68074 6.63521 6.65188C7.49419 6.39041 8.40539 6.24991 9.34906 6.24991C14.5089 6.24991 18.6981 10.4507 18.6981 15.6249C18.6981 20.7991 14.5089 24.9999 9.34906 24.9999C4.18921 24.9999 6.10352e-05 20.7991 6.10352e-05 15.6249ZM6.23273 15.6249C6.23273 17.3496 7.62911 18.7499 9.34906 18.7499C11.069 18.7499 12.4654 17.3496 12.4654 15.6249C12.4654 13.9002 11.069 12.4999 9.34906 12.4999C7.62911 12.4999 6.23273 13.9002 6.23273 15.6249Z" fill="#FAF6EB"/>
<path fill-rule="evenodd" clip-rule="evenodd" d="M32.3248 24.7971C32.3248 24.7207 32.2884 24.6489 32.2268 24.604C32.1652 24.559 32.0859 24.5462 32.0134 24.5697C31.1279 24.8494 30.1856 25 29.2085 25C24.0486 25 19.8595 20.7992 19.8595 15.625C19.8595 10.4508 24.0486 6.25 29.2085 6.25C34.3683 6.25 38.5575 10.4508 38.5575 15.625C38.5575 15.625 38.5575 23.0598 38.5575 24.6875C38.5575 24.7704 38.5246 24.8499 38.4662 24.9085C38.4078 24.9671 38.3285 25 38.2458 25H32.5271C32.4154 25 32.3248 24.9092 32.3248 24.7972V24.7971ZM32.3248 15.625C32.3248 13.9003 30.9284 12.5 29.2085 12.5C27.4885 12.5 26.0921 13.9003 26.0921 15.625C26.0921 17.3497 27.4885 18.75 29.2085 18.75C30.9284 18.75 32.3248 17.3497 32.3248 15.625Z" fill="#FAF6EB"/>
<path fill-rule="evenodd" clip-rule="evenodd" d="M72.0436 24.7971C72.0436 24.7207 72.0072 24.6489 71.9456 24.604C71.8841 24.559 71.8048 24.5462 71.7322 24.5697C70.8467 24.8494 69.9044 25 68.9273 25C63.7674 25 59.5783 20.7992 59.5783 15.625C59.5783 10.4508 63.7674 6.25 68.9273 6.25C74.0871 6.25 78.2763 10.4508 78.2763 15.625C78.2763 15.625 78.2763 23.0598 78.2763 24.6875C78.2763 24.7704 78.2435 24.8499 78.185 24.9085C78.1266 24.9671 78.0473 25 77.9647 25H72.2459C72.1342 25 72.0436 24.9092 72.0436 24.7972V24.7971ZM72.0436 15.625C72.0436 13.9003 70.6472 12.5 68.9273 12.5C67.2073 12.5 65.8109 13.9003 65.8109 15.625C65.8109 17.3497 67.2073 18.75 68.9273 18.75C70.6472 18.75 72.0436 17.3497 72.0436 15.625Z" fill="#FAF6EB"/>
<path fill-rule="evenodd" clip-rule="evenodd" d="M39.7191 24.6875C39.7191 23.0598 39.7191 15.625 39.7191 15.625C39.7191 10.4508 43.9082 6.25 49.0681 6.25C54.2279 6.25 58.4171 10.4508 58.4171 15.625C58.4171 15.6263 58.4171 23.0598 58.4171 24.6875C58.4171 24.7704 58.3842 24.8499 58.3258 24.9085C58.2673 24.9671 58.1881 25 58.1054 25H52.496C52.4134 25 52.3341 24.9671 52.2757 24.9085C52.2172 24.8499 52.1844 24.7704 52.1844 24.6875C52.1844 23.0598 52.1844 15.625 52.1844 15.625C52.1844 13.9003 50.788 12.5 49.0681 12.5C47.3481 12.5 45.9517 13.9003 45.9517 15.625C45.9517 15.625 45.9517 23.0598 45.9517 24.6875C45.9517 24.7704 45.9189 24.8499 45.8604 24.9085C45.802 24.9671 45.7227 25 45.6401 25H40.0307C39.948 25 39.8688 24.9671 39.8103 24.9085C39.7519 24.8499 39.7191 24.7704 39.7191 24.6875Z" fill="#FAF6EB"/>
<path fill-rule="evenodd" clip-rule="evenodd" d="M111.763 24.7971C111.763 24.7207 111.726 24.6489 111.665 24.604C111.603 24.559 111.524 24.5462 111.451 24.5697C110.566 24.8494 109.623 25 108.646 25C103.486 25 99.2973 20.7992 99.2973 15.625C99.2973 10.4508 103.486 6.25 108.646 6.25C113.806 6.25 117.995 10.4508 117.995 15.625C117.995 15.625 117.995 23.0598 117.995 24.6875C117.995 24.7704 117.963 24.8499 117.904 24.9085C117.846 24.9671 117.766 25 117.684 25C116.58 25 112.873 25 111.965 25C111.853 25 111.763 24.9092 111.763 24.7972V24.7971ZM111.763 15.625C111.763 13.9003 110.366 12.5 108.646 12.5C106.926 12.5 105.53 13.9003 105.53 15.625C105.53 17.3497 106.926 18.75 108.646 18.75C110.366 18.75 111.763 17.3497 111.763 15.625Z" fill="#FAF6EB"/>
<path fill-rule="evenodd" clip-rule="evenodd" d="M79.4378 24.6875C79.4378 23.0598 79.4378 15.625 79.4378 15.625C79.4378 10.4508 83.627 6.25 88.7868 6.25C93.9467 6.25 98.1358 10.4508 98.1358 15.625V24.6875C98.1358 24.7704 98.103 24.8499 98.0445 24.9085C97.9861 24.9671 97.9068 25 97.8242 25H92.2148C92.1321 25 92.0529 24.9671 91.9944 24.9085C91.936 24.8499 91.9032 24.7704 91.9032 24.6875C91.9032 23.0598 91.9032 15.625 91.9032 15.625C91.9032 13.9003 90.5068 12.5 88.7868 12.5C87.0669 12.5 85.6705 13.9003 85.6705 15.625C85.6705 15.625 85.6705 23.0598 85.6705 24.6875C85.6705 24.7704 85.6377 24.8499 85.5792 24.9085C85.5208 24.9671 85.4415 25 85.3588 25H79.7494C79.6668 25 79.5875 24.9671 79.5291 24.9085C79.4706 24.8499 79.4378 24.7704 79.4378 24.6875Z" fill="#FAF6EB"/>
</g>
<defs>
<clipPath id="clip0_3_11">
<rect width="118" height="25" fill="white"/>
</clipPath>
</defs>
</svg>
